Coordinates
version=1
nRows=16
nColumns=36
inDegrees=yes

Units are S.I. units (second, meters, Newtons, ...)
If the header above contains a line with 'inDegrees', this indicates whether rotational values are in degrees (yes) or radians (no).

endheader
time	pelvis_tilt	pelvis_list	pelvis_rotation	pelvis_tx	pelvis_ty	pelvis_tz	hip_flexion_r	hip_adduction_r	hip_rotation_r	knee_angle_r	knee_angle_r_beta	ankle_angle_r	subtalar_angle_r	mtp_angle_r	hip_flexion_l	hip_adduction_l	hip_rotation_l	knee_angle_l	knee_angle_l_beta	ankle_angle_l	subtalar_angle_l	mtp_angle_l	lumbar_extension	lumbar_bending	lumbar_rotation	arm_flex_r	arm_add_r	arm_rot_r	elbow_flex_r	pro_sup_r	arm_flex_l	arm_add_l	arm_rot_l	elbow_flex_l	pro_sup_l
      2.96666670	     -5.07477937	      1.21687308	      2.85029802	     -0.12551997	      0.88112874	      0.13259604	     11.04073470	     -1.49636733	      1.14435444	     12.89826158	      0.22511713	      6.87546406	    -11.87487784	     -7.49999987	     14.91702271	     -4.93461463	      0.38776078	     19.55371185	      0.34127665	      9.68963456	     -6.37028271	     -7.49999987	      3.53665563	      2.83310984	     -1.92809033	     29.85501897	      6.96018590	     60.92960348	    129.75786765	     83.44989646	     37.10176365	     10.18774558	     62.08794243	    128.22340543	     68.95468185
      2.98333330	     -5.16335754	      1.26670675	      3.08081069	     -0.12591783	      0.88017824	      0.13029447	     10.98319843	     -1.66989890	      0.83505774	     12.72279553	      0.22205467	      6.73513917	    -11.84322193	     -7.49999987	     15.05646915	     -5.22215631	     -0.21638063	     18.83843995	      0.32879280	      9.05304980	     -6.28626515	     -7.49999987	      3.52707382	      2.80640435	     -1.90598802	     29.68865325	      7.11799151	     61.03237674	    129.67264900	     83.44294803	     37.14470654	     10.20203346	     62.08919590	    128.25146385	     68.93804613
      3.00000000	     -5.29468481	      1.27323440	      3.19004603	     -0.12465970	      0.88100162	      0.13009328	     10.96847879	     -1.76220584	      0.68855149	     12.48980809	      0.21798827	      6.44416459	    -11.95487210	     -7.49999987	     15.17490761	     -5.46121929	     -0.75601053	     18.19261047	      0.31752095	      8.18894521	     -6.19143778	     -7.49999987	      3.61426089	      2.73286660	     -1.81216221	     29.48063493	      7.21367739	     61.03578209	    129.67316560	     82.96909459	     36.92480277	     10.12815264	     62.04004203	    128.32604596	     68.67931372
      3.01666670	     -5.44916006	      1.24406754	      3.30755731	     -0.12506994	      0.88211632	      0.12774664	     10.96453036	     -1.86177850	      0.40687926	     12.24028607	      0.21363329	      6.24700879	    -11.79167915	     -7.49999987	     15.27982121	     -5.57424000	     -1.28898634	     17.59230651	      0.30704367	      7.34910071	     -5.82962659	     -7.49999987	      3.75485085	      2.80498208	     -1.68517568	     29.09185425	      7.20612457	     61.05145561	    129.67754358	     81.94748530	     36.43513515	     10.02427540	     61.95500154	    128.46012294	     68.23642151
      3.03333330	     -5.20033831	      1.27256883	      3.26719434	     -0.12302932	      0.87998107	      0.12611351	     10.55375999	     -2.00177076	      0.10280343	     12.04987077	      0.21030992	      6.12303843	    -11.45847970	     -7.49999987	     14.78240858	     -5.57557352	     -1.78964137	     16.93858491	      0.29563408	      6.77182058	     -5.08362810	     -7.49999987	      3.34286803	      2.77295745	     -1.65004316	     29.11727856	      7.44659248	     61.54942192	    129.74705981	     81.56146815	     36.43355873	     10.05535940	     61.99130556	    128.46937166	     68.12037164
      3.05000000	     -5.01994017	      1.23553293	      3.28576138	     -0.12265645	      0.87989580	      0.12391583	     10.25020988	     -2.08390025	     -0.07568769	     11.94040559	      0.20839939	      6.14447350	    -11.34040635	     -7.49999987	     14.40974624	     -5.51085099	     -2.17089300	     16.42411546	      0.28665489	      6.49143027	     -4.23826942	     -7.49999987	      3.04914753	      2.81364430	     -1.64778430	     29.23737995	      7.54848975	     61.89430107	    129.88433481	     81.21260512	     36.33102033	     10.11111053	     62.05277817	    128.57376272	     68.00005501
      3.06666670	     -4.90751096	      1.20547180	      3.20780591	     -0.12079773	      0.88076655	      0.12237407	     10.02074396	     -2.17628008	     -0.19285165	     11.90765937	      0.20782786	      6.25734869	    -11.01628252	     -7.49999987	     14.07865436	     -5.38968895	     -2.61851407	     15.96128333	      0.27857695	      6.22591134	     -3.37259420	     -7.49999987	      2.93399842	      2.76431776	     -1.69805515	     29.21329258	      7.68561734	     62.22287961	    129.99709773	     79.87583109	     36.01291131	     10.10681891	     62.00551202	    128.70646272	     67.57975740
      3.08333330	     -4.94195363	      1.13813511	      3.20409018	     -0.11985068	      0.87706013	      0.11896966	      9.94839790	     -2.26271764	     -0.32125197	     11.89840211	      0.20766629	      6.32454076	    -11.12190763	     -7.49999987	     13.98399367	     -5.18091163	     -2.97958801	     15.59897741	      0.27225352	      6.08573636	     -3.26519671	     -7.49999987	      3.03744449	      2.71731183	     -1.74669940	     29.20568000	      7.84350689	     62.24592212	    130.06497560	     79.94240104	     35.88013397	     10.26109801	     61.97121738	    128.73779176	     67.61544345
      3.10000000	     -4.74591605	      1.14110790	      3.02306961	     -0.12064706	      0.88320892	      0.11861956	      9.66298254	     -2.34988533	     -0.11803185	     11.77974263	      0.20559529	      6.21802309	    -11.00086672	     -7.49999987	     13.50888702	     -5.00310338	     -3.74774129	     15.09016633	      0.26337309	      5.64530018	     -2.72583226	     -7.49999987	      2.80631408	      2.56974930	     -1.67106246	     29.18013077	      7.99902410	     62.51737448	    130.06781852	     80.40167380	     35.61235910	     10.17668561	     61.84222145	    128.82076590	     67.86419332
      3.11666670	     -4.80681898	      1.02708364	      2.91078243	     -0.11905057	      0.88039754	      0.11522510	      9.65287019	     -2.38759258	     -0.13841649	     11.69632976	      0.20413946	      6.19776587	    -10.90505927	     -7.49999987	     13.39643743	     -4.84589614	     -4.22238082	     14.73029929	      0.25709222	      5.46223387	     -2.74799515	     -7.49999987	      2.94356332	      2.50177240	     -1.71230435	     29.04097532	      8.08797314	     62.48290622	    130.01446365	     80.19287064	     35.40004868	     10.16219489	     61.82733445	    128.83798763	     67.79717147
      3.13333330	     -4.66207845	      0.97753307	      2.81805157	     -0.11660586	      0.88391643	      0.11144624	      9.30588485	     -2.51554158	     -0.14061117	     11.54881288	      0.20156481	      5.82291517	    -10.74167489	     -7.49999987	     12.94034010	     -4.61813715	     -4.69533877	     14.31571388	      0.24985634	      5.05034984	     -2.68659832	     -7.49999987	      2.84947969	      2.41133348	     -1.66766254	     28.94023181	      8.21982270	     62.62480837	    129.75887604	     80.33475786	     35.27428930	     10.07041200	     61.89988441	    128.71189298	     67.84891224
      3.15000000	     -4.42713100	      0.88454296	      2.68348886	     -0.11621191	      0.87854991	      0.10844256	      8.91044157	     -2.58830423	     -0.17335570	     11.47357182	      0.20025161	      5.90888578	    -10.52339201	     -7.49999987	     12.47009980	     -4.45837477	     -4.99331403	     14.11440224	      0.24634279	      5.10978684	     -2.93677112	     -7.49999987	      2.66021504	      2.24839871	     -1.74985523	     28.94384061	      8.44020064	     62.64772689	    129.64966386	     80.10823971	     35.44222126	      9.98992076	     61.66517185	    128.67890044	     67.74535118
      3.16666670	     -4.21559378	      0.86078465	      2.40611107	     -0.11574527	      0.88049267	      0.10562295	      8.54765867	     -2.72068370	      0.07817637	     11.32255717	      0.19761590	      5.82483458	    -10.50624810	     -7.49999987	     11.96886820	     -4.31633180	     -5.41372319	     13.87310653	      0.24213139	      5.18655865	     -2.81869873	     -7.49999987	      2.59857091	      2.01648606	     -1.68064506	     28.97745391	      8.54321953	     62.54602030	    129.25894450	     78.93884414	     35.56777491	      9.81109165	     61.50678618	    128.51522377	     67.16695454
      3.18333330	     -4.03253757	      0.84261508	      2.14377655	     -0.11379843	      0.87964283	      0.10257530	      8.24931605	     -2.90447715	      0.22168338	     11.32613896	      0.19767842	      5.96471345	    -10.28797778	     -7.49999987	     11.53763498	     -4.14483681	     -5.73841859	     13.78187892	      0.24053916	      5.26080091	     -2.88769163	     -7.49999987	      2.58057408	      1.77996720	     -1.61133808	     28.96076809	      8.81348428	     62.54240904	    129.09305287	     79.12416731	     35.57124356	      9.72883479	     61.40545248	    128.53843457	     67.17983282
      3.20000000	     -3.87787885	      0.82042578	      1.90369969	     -0.11310448	      0.87877017	      0.09836062	      8.03033164	     -3.11172375	      0.33530284	     11.43417013	      0.19956392	      6.32574803	     -9.98402337	     -7.49999987	     11.16903797	     -3.96483376	     -5.91071623	     13.67262926	      0.23863240	      5.54109342	     -2.95835009	     -7.49999987	      2.61266547	      1.57066808	     -1.63355005	     28.98686589	      9.04819289	     62.51647600	    128.88365322	     78.02078886	     35.58578625	      9.49251914	     61.07290353	    128.49438024	     66.77133612
      3.21666670	     -3.81630370	      0.80617180	      1.61550734	     -0.11282975	      0.87980448	      0.09460989	      8.03723547	     -3.32590477	      0.73215082	     11.70686381	      0.20432332	      6.46562806	    -10.11975378	     -7.49999987	     10.92287826	     -3.76717693	     -6.12912664	     13.57050638	      0.23685002	      5.90686339	     -2.84439321	     -7.49999987	      2.70538668	      1.38703451	     -1.61868089	     28.90097784	      9.10978162	     62.16117188	    128.68966822	     78.04686067	     35.53830873	      9.22731954	     60.70313490	    128.35042603	     66.67221015
